<svg width="32" height="32" viewBox="0 0 32 32" fill="none" xmlns="http://www.w3.org/2000/svg">
<path d="M6.98195 15.4511L10.3403 16.872C10.7708 16.0109 11.2445 15.1767 11.7611 14.3694C12.2778 13.5621 12.8483 12.7817 13.4726 12.0282L11.4382 11.6407C11.266 11.5977 11.0991 11.603 10.9377 11.6569C10.7762 11.7107 10.6309 11.8022 10.5017 11.9313L6.98195 15.4511ZM11.0507 17.4532L14.6997 21.1022C15.7545 20.607 16.7986 20.0043 17.832 19.2938C18.8653 18.5834 19.8663 17.7438 20.8351 16.7751C22.1913 15.4188 23.2193 13.9926 23.9189 12.4964C24.6186 11.0003 25.0438 9.1435 25.1945 6.92614C22.9771 7.07683 21.1257 7.502 19.6403 8.20166C18.1549 8.90131 16.734 9.92926 15.3778 11.2855C14.409 12.2543 13.5695 13.2607 12.859 14.3048C12.1486 15.3489 11.5458 16.3984 11.0507 17.4532ZM18.0257 14.0949C17.6813 13.7504 17.509 13.3414 17.509 12.8678C17.509 12.3942 17.6813 11.9852 18.0257 11.6407C18.3701 11.2963 18.7846 11.1241 19.2689 11.1241C19.7533 11.1241 20.1677 11.2963 20.5122 11.6407C20.8566 11.9852 21.0288 12.3942 21.0288 12.8678C21.0288 13.3414 20.8566 13.7504 20.5122 14.0949C20.1677 14.4393 19.7533 14.6116 19.2689 14.6116C18.7846 14.6116 18.3701 14.4393 18.0257 14.0949ZM16.6695 25.1709L20.1892 21.6511C20.3184 21.522 20.4099 21.3767 20.4637 21.2152C20.5175 21.0537 20.5229 20.8869 20.4799 20.7147L20.0924 18.6803C19.3389 19.3046 18.5585 19.8751 17.7512 20.3918C16.9439 20.9084 16.1097 21.382 15.2486 21.8126L16.6695 25.1709ZM26.0663 6.08655C26.1309 8.39003 25.7703 10.4675 24.9846 12.3188C24.1988 14.1702 23.0201 15.8817 21.4486 17.4532L21.158 17.7438L20.8674 18.0345L21.3517 20.5209C21.4163 20.8438 21.4056 21.156 21.3195 21.4574C21.2333 21.7588 21.0719 22.0279 20.8351 22.2647L16.3465 26.7209L14.3767 22.0709L10.0497 17.7438L5.39966 15.7418L9.85591 11.2855C10.0927 11.0487 10.3618 10.8819 10.6632 10.785C10.9646 10.6881 11.2767 10.672 11.5997 10.7366L14.1507 11.2532C14.2583 11.1456 14.3498 11.0487 14.4252 10.9626C14.5005 10.8765 14.592 10.7796 14.6997 10.672C16.2712 9.10044 17.9826 7.92718 19.834 7.15218C21.6854 6.37718 23.7629 6.02197 26.0663 6.08655ZM7.53091 21.4574C7.96146 21.0268 8.48351 20.8169 9.09705 20.8277C9.7106 20.8385 10.2326 21.0591 10.6632 21.4897C11.0938 21.9202 11.309 22.4423 11.309 23.0558C11.309 23.6694 11.0938 24.1914 10.6632 24.622C10.2542 25.031 9.60834 25.3808 8.7257 25.6714C7.84306 25.9621 6.9066 26.1397 5.91632 26.2043C5.98091 25.214 6.16389 24.2775 6.46528 23.3949C6.76667 22.5122 7.12188 21.8664 7.53091 21.4574ZM8.17674 22.1355C7.91841 22.3938 7.6816 22.8029 7.46633 23.3626C7.25105 23.9223 7.11112 24.5036 7.04653 25.1063C7.64931 25.0418 8.23056 24.8964 8.79028 24.6704C9.35001 24.4444 9.75903 24.2022 10.0174 23.9438C10.2757 23.6855 10.4049 23.3787 10.4049 23.0235C10.4049 22.6683 10.2757 22.3616 10.0174 22.1032C9.75903 21.8449 9.45226 21.7211 9.09705 21.7319C8.74185 21.7426 8.43508 21.8772 8.17674 22.1355Z" fill="url(#paint0_linear_35_357)"/>
<defs>
<linearGradient id="paint0_linear_35_357" x1="1.66127" y1="0.715968" x2="29.0851" y2="20.7416" gradientUnits="userSpaceOnUse">
<stop stop-color="#F2DE97"/>
<stop offset="1" stop-color="#CBB876"/>
</linearGradient>
</defs>
</svg>
